<svg xmlns="http://www.w3.org/2000/svg" viewBox="0 0 512 512" width="512" height="512"><rect width="512" height="512" fill="#FFF8EA"/><rect x="140" y="50" width="232" height="232" rx="49" fill="#A74731"/><g transform="translate(174.37037037037038 86.51851851851852) scale(1.5037037037037035)" fill="#FFF8EA"><path d="M25 55 L54 31 L70 44 L70 31 L77 31 L77 50 L83 55 L83 85 L25 85 Z M19 55 L54 26 L89 55 L83 61 L54 37 L25 61 Z"/><path d="M76 12 C69 5 60 11 63 19 C65 25 72 29 76 32 C80 29 87 25 89 19 C92 11 83 5 76 12 Z"/><path d="M76 31 C75 36 77 38 74 42" fill="none" stroke="#FFF8EA" stroke-width="3.2" stroke-linecap="round"/></g><text x="256" y="345" text-anchor="middle" fill="#312921" font-family="DejaVu Serif,serif" font-weight="bold" font-size="50">Вкус детства</text><text x="256" y="387" text-anchor="middle" fill="#365847" font-family="DejaVu Sans,sans-serif" font-size="18" letter-spacing="2">СЕМЕЙНЫЕ РЕЦЕПТЫ</text></svg>
